# Blender v2.93.1 OBJ File: 'capital_building.blend'
# www.blender.org
mtllib capital_building.mtl
o Cube
v 0.527493 0.002507 -0.527493
v 0.527493 0.002507 0.527493
v -0.527493 0.002507 -0.527493
v 0.000000 1.057493 0.000000
v -0.527493 0.002507 0.527493
vt 0.375000 0.750000
vt 0.625000 1.000000
vt 0.375000 1.000000
vt 0.375000 0.000000
vt 0.625000 0.250000
vt 0.375000 0.250000
vt 0.375000 0.500000
vt 0.125000 0.750000
vt 0.125000 0.500000
vt 0.625000 0.750000
vt 0.625000 0.500000
vn 0.0000 0.4472 0.8944
vn -0.8944 0.4472 0.0000
vn 0.0000 -1.0000 0.0000
vn 0.8944 0.4472 0.0000
vn 0.0000 0.4472 -0.8944
usemtl Material
s off
f 2/1/1 4/2/1 5/3/1
f 5/4/2 4/5/2 3/6/2
f 1/7/3 5/8/3 3/9/3
f 1/7/4 4/10/4 2/1/4
f 3/6/5 4/11/5 1/7/5
f 1/7/3 2/1/3 5/8/3
