# Blender v2.93.1 OBJ File: 'hex_tile.blend'
# www.blender.org
mtllib hex_tile.mtl
o Cube
v 0.270088 0.022507 -0.450147
v 0.270088 -0.022507 -0.450147
v 0.270088 0.022507 0.450147
v 0.270088 -0.022507 0.450147
v -0.270088 0.022507 -0.450147
v -0.270088 -0.022507 -0.450147
v -0.270088 0.022507 0.450147
v -0.270088 -0.022507 0.450147
v -0.495162 -0.022507 0.000000
v 0.495162 0.022507 0.000000
v -0.495162 0.022507 0.000000
v 0.495162 -0.022507 0.000000
vt 0.625000 0.750000
vt 0.375000 1.000000
vt 0.375000 0.750000
vt 0.625000 0.125000
vt 0.375000 0.250000
vt 0.375000 0.125000
vt 0.625000 0.000000
vt 0.625000 0.625000
vt 0.375000 0.625000
vt 0.625000 0.250000
vt 0.375000 0.500000
vt 0.625000 0.500000
vt 0.375000 0.000000
vt 0.625000 1.000000
vn 0.0000 0.0000 1.0000
vn -0.8944 0.0000 -0.4472
vn 0.0000 1.0000 0.0000
vn 0.8944 0.0000 0.4472
vn 0.0000 0.0000 -1.0000
vn 0.8944 0.0000 -0.4472
vn 0.0000 -1.0000 0.0000
vn -0.8944 0.0000 0.4472
usemtl Material
s off
f 3/1/1 8/2/1 4/3/1
f 11/4/2 6/5/2 9/6/2
f 11/4/3 7/7/3 10/8/3
f 10/8/4 4/3/4 12/9/4
f 5/10/5 2/11/5 6/5/5
f 1/12/6 12/9/6 2/11/6
f 12/9/7 4/3/7 8/2/7
f 7/7/8 9/6/8 8/13/8
f 3/1/1 7/14/1 8/2/1
f 11/4/2 5/10/2 6/5/2
f 7/7/3 3/1/3 10/8/3
f 10/8/3 1/12/3 5/10/3
f 5/10/3 11/4/3 10/8/3
f 10/8/4 3/1/4 4/3/4
f 5/10/5 1/12/5 2/11/5
f 1/12/6 10/8/6 12/9/6
f 8/2/7 9/6/7 12/9/7
f 9/6/7 6/5/7 12/9/7
f 6/5/7 2/11/7 12/9/7
f 7/7/8 11/4/8 9/6/8
